PathFileType	4	(X/Y/Z)	C:/Users/opensim2020/Desktop/walking_exp_matlab/subject03_walking15_straight_02.trc	
DataRate	CameraRate	NumFrames	NumMarkers	Units	OrigDataRate	OrigDataStartFrame	OrigNumFrames	
100.00	100.00	8	47	mm	100.00	1178	149	
Frame#	Time	LFHD			RFHD			LBHD			RBHD			C7			T10			CLAV			STRN			RBAK			LSHO			LUPA			LELB			LFRM			LWRA			LWRB			LFIN			RSHO			RUPA			RELB			RFRM			RWRA			RWRB			RFIN			LASI			RASI			LPSI			RPSI			LTHI			LKNE			LTIB			LANK			LHEE			LTOE			RTHI			RKNE			RTIB			RANK			RHEE			RTOE			*39			*40			*41			*42			*43			*44			*45			*46			
		X1	Y1	Z1	X2	Y2	Z2	X3	Y3	Z3	X4	Y4	Z4	X5	Y5	Z5	X6	Y6	Z6	X7	Y7	Z7	X8	Y8	Z8	X9	Y9	Z9	X10	Y10	Z10	X11	Y11	Z11	X12	Y12	Z12	X13	Y13	Z13	X14	Y14	Z14	X15	Y15	Z15	X16	Y16	Z16	X17	Y17	Z17	X18	Y18	Z18	X19	Y19	Z19	X20	Y20	Z20	X21	Y21	Z21	X22	Y22	Z22	X23	Y23	Z23	X24	Y24	Z24	X25	Y25	Z25	X26	Y26	Z26	X27	Y27	Z27	X28	Y28	Z28	X29	Y29	Z29	X30	Y30	Z30	X31	Y31	Z31	X32	Y32	Z32	X33	Y33	Z33	X34	Y34	Z34	X35	Y35	Z35	X36	Y36	Z36	X37	Y37	Z37	X38	Y38	Z38	X39	Y39	Z39	X40	Y40	Z40	X41	Y41	Z41	X42	Y42	Z42	X43	Y43	Z43	X44	Y44	Z44	X45	Y45	Z45	X46	Y46	Z46	X47	Y47	Z47	

94	0.930	-924.32526	-282.29242	1596.76001	-1056.61450	-284.80499	1607.48096	-933.72974	-152.39348	1560.24133	-1063.89685	-159.89886	1569.94165	-996.72150	-124.04052	1393.14404	-996.19965	-111.86621	1076.86987	-996.45398	-250.69583	1325.18677	-984.97791	-307.35648	1164.99475	-1085.70703	-83.21516	1209.18384	-841.69006	-200.92587	1362.66724	-764.34064	-225.68839	1173.03442	-755.00732	-266.54596	1059.53174	-781.75952	-364.71597	988.02277	-840.77881	-452.92126	932.05084	-792.21246	-443.38071	906.40814	-817.95990	-516.96649	880.73370	-1156.79236	-199.08847	1342.35022	-1226.82043	-178.87497	1120.19824	-1238.51331	-180.52377	1006.04657	-1240.78772	-174.22426	868.72607	-1205.19531	-185.59222	768.18585	-1251.34460	-155.12416	769.57263	-1236.48486	-154.81578	693.44666	-871.21240	-269.80661	911.98108	-1108.85657	-296.52567	931.93597	-939.47516	-114.53213	930.26819	-1085.46094	-130.70860	951.85809	-826.74817	-229.90605	605.92816	-841.90875	-250.15825	426.84064	-849.87689	-82.70533	324.67346	-897.52325	89.60939	215.89987	-937.90881	133.38141	236.96706	-920.17102	62.67609	67.98234	-1157.93066	-300.89230	638.43231	-1109.01270	-358.10498	470.86444	-1114.70166	-318.21783	278.85919	-1068.61267	-276.66449	68.18795	-1020.93445	-225.36801	37.80743	-1047.53162	-413.85449	32.48653	-973.26660	-203.37997	1667.38098																					 
95	0.940	-923.83386	-296.58884	1598.68225	-1056.16064	-299.40036	1609.47546	-933.52631	-166.53664	1562.76160	-1063.72827	-174.38162	1572.48938	-996.75073	-137.90317	1395.40430	-996.55347	-125.64814	1079.13525	-995.85297	-264.37640	1327.35852	-984.14679	-321.04266	1167.19946	-1086.45154	-97.68531	1211.59583	-841.29333	-213.51433	1364.95825	-764.64423	-236.13358	1174.48132	-755.75317	-276.06149	1060.42371	-781.59198	-372.94690	986.58618	-839.58490	-460.30710	928.16998	-791.03125	-449.95190	903.15155	-816.80457	-522.90265	874.90057	-1156.50781	-214.17032	1344.82544	-1227.20740	-196.77338	1122.69824	-1239.34790	-199.83545	1008.65863	-1241.77136	-196.08084	871.20453	-1206.31104	-208.97658	771.09961	-1252.66797	-179.22644	771.74695	-1238.37268	-181.31946	695.89374	-871.34802	-283.71976	915.05292	-1108.89075	-310.31146	933.62415	-939.75696	-128.75481	932.84863	-1085.84778	-144.69868	954.04504	-827.26495	-252.68790	608.80280	-842.57007	-278.49420	430.70532	-850.36517	-112.58087	326.89624	-897.30060	57.73547	214.12576	-937.53638	103.55758	232.66916	-919.22882	23.23228	67.89200	-1157.62036	-309.66083	638.77899	-1109.20020	-363.49960	470.01514	-1114.54700	-321.16235	278.48993	-1068.54736	-276.66888	68.42197	-1020.92377	-225.46951	38.15303	-1047.56299	-413.92361	32.43850																								 
96	0.950	-923.36029	-310.83121	1600.61609	-1055.13684	-314.45599	1611.23291	-933.43585	-180.29895	1565.48621	-1063.52393	-188.77654	1575.05701	-997.23511	-151.58000	1397.67432	-997.06964	-139.43610	1081.46606	-995.25995	-277.97992	1329.59583	-983.45422	-334.61288	1169.40442	-1087.05005	-112.00301	1214.08728	-840.84753	-225.90588	1367.25562	-764.88013	-246.38689	1175.94836	-756.59375	-285.16931	1061.26855	-781.30090	-380.84225	984.92853	-838.34918	-467.24463	923.83606	-789.58295	-455.93607	899.56787	-815.21527	-528.01007	868.40729	-1156.17505	-228.89101	1347.51587	-1227.67786	-214.53502	1125.30286	-1239.96875	-219.25113	1011.39795	-1242.84778	-218.09683	873.96899	-1207.33801	-232.73463	774.25311	-1253.94788	-203.35130	774.44470	-1240.74622	-208.55446	698.69501	-871.66003	-297.75763	918.27618	-1109.04968	-323.83481	935.27722	-939.82446	-142.78334	935.76685	-1086.11206	-158.39113	956.17877	-827.73236	-274.81787	612.12988	-843.30988	-306.57928	435.12775	-851.00073	-142.71616	327.95584	-897.21460	24.83243	210.38795	-937.27448	72.64075	226.36111	-919.00348	-17.52075	66.76807	-1157.53772	-318.65237	639.20447	-1109.09778	-368.61905	469.34821	-1114.05347	-323.79236	278.27109	-1068.44531	-276.76013	68.58932	-1020.75519	-225.61127	38.61739	-1047.60620	-414.00378	32.38598	-975.76373	-233.80066	1668.96497																					 
97	0.960	-922.86487	-325.03769	1602.52490	-1054.56860	-328.94696	1613.03040	-932.94647	-194.54131	1567.95837	-1063.18066	-203.02623	1577.57532	-997.16547	-165.33179	1399.97302	-997.69238	-153.18739	1083.79370	-994.57819	-291.53970	1331.81506	-982.98279	-348.03580	1171.60413	-1087.57458	-126.16556	1216.61670	-840.37213	-238.27155	1369.54932	-765.11420	-256.61749	1177.37769	-757.23596	-294.54724	1062.22009	-780.76190	-388.45624	983.12006	-836.89490	-473.72687	919.14819	-787.88275	-461.46286	895.73035	-813.21381	-532.38129	861.28827	-1155.95239	-243.50336	1350.00952	-1228.06824	-232.13976	1128.00098	-1240.67908	-238.47592	1014.30811	-1243.83972	-240.19423	876.94617	-1208.82385	-256.78366	777.69037	-1255.08948	-227.66718	777.28369	-1242.01270	-235.56534	701.88763	-872.42133	-312.13724	921.70728	-1109.42517	-337.12317	936.85822	-939.60394	-156.83992	938.62280	-1086.25403	-171.90321	958.25726	-828.17114	-296.21063	615.71747	-844.02686	-333.21448	439.81830	-851.64240	-172.98952	327.95288	-897.36945	-8.62061	205.05853	-937.31183	40.92828	218.03310	-919.32153	-60.11794	65.04140	-1156.77173	-327.47803	639.77472	-1108.80237	-373.52209	468.69153	-1113.74365	-326.31073	278.27640	-1067.88245	-276.81741	68.96159	-1020.50897	-225.80244	39.15988	-1047.60254	-414.15027	32.34516	-973.50275	-248.89047	1670.80957																					 
98	0.970	-922.36255	-339.11664	1604.32507	-1053.97083	-343.28754	1614.75867	-932.60638	-208.65274	1570.43604	-1062.68445	-217.29019	1579.91211	-997.16962	-179.05179	1402.22205	-998.31757	-166.88394	1086.01355	-993.96265	-305.02774	1333.90564	-982.72894	-361.48230	1173.71570	-1088.07751	-140.14168	1219.15295	-839.92041	-250.62213	1371.67944	-765.24805	-266.84351	1178.67114	-757.98462	-303.38593	1062.98145	-780.08331	-395.72592	981.03497	-835.12750	-479.82910	914.02856	-785.98224	-466.39240	891.59027	-810.85199	-535.98163	853.69067	-1155.35901	-257.95016	1352.54749	-1228.43835	-249.57626	1130.69409	-1241.41187	-257.65985	1017.25806	-1244.87524	-262.36127	880.22198	-1209.54321	-280.82352	781.44165	-1256.12683	-252.18573	780.23663	-1243.84302	-263.13049	705.45801	-873.95996	-327.26956	925.37463	-1110.10217	-350.15723	938.36835	-939.24323	-170.92818	941.37506	-1086.13062	-185.34738	960.19141	-828.55920	-316.95947	619.33582	-844.89258	-359.26730	444.98837	-852.38922	-203.25816	327.19577	-897.80762	-42.98895	198.36021	-937.53772	8.14322	207.71332	-919.26208	-105.73899	63.62922	-1156.54187	-336.82639	640.43933	-1108.35583	-378.18451	468.10168	-1113.42529	-328.22833	278.38489	-1067.55310	-277.15948	69.22143	-1020.18170	-226.05345	39.76439	-1047.52441	-414.31909	32.29216	-972.75671	-263.64758	1672.86694																					 
99	0.980	-921.73828	-353.15247	1605.91748	-1053.34143	-357.54160	1616.36365	-931.92737	-222.82167	1572.46301	-1062.26160	-231.29442	1582.16309	-997.04163	-192.74649	1404.30298	-998.87628	-180.47391	1088.05408	-993.39716	-318.47635	1335.88525	-982.71680	-374.94943	1175.67090	-1088.67444	-153.93620	1221.63123	-839.52039	-263.14993	1373.58569	-765.39581	-277.01764	1179.88074	-758.46143	-312.39380	1063.57275	-779.25708	-402.78033	978.68976	-833.11432	-485.52911	908.55206	-783.85028	-470.79181	887.03784	-808.12543	-538.76923	845.56244	-1154.97083	-271.99994	1355.36902	-1228.89063	-266.83200	1133.36340	-1242.16272	-276.72079	1020.25873	-1245.74121	-284.51453	883.36053	-1210.22803	-305.00708	785.14850	-1257.05298	-276.78467	783.32074	-1245.50818	-290.89139	709.21637	-874.81464	-341.70328	928.50775	-1111.02014	-362.99960	939.75543	-938.52496	-185.09302	943.98114	-1085.87170	-198.62051	962.05853	-828.90570	-337.27924	622.99921	-845.75122	-384.69263	449.93039	-853.23236	-233.62489	325.94687	-898.38794	-78.41277	190.28255	-937.97839	-25.93807	195.82776	-920.25116	-151.15889	61.14846	-1155.96521	-346.10513	641.05487	-1107.91943	-382.66846	467.59381	-1113.15283	-329.87250	278.56329	-1066.91589	-277.75510	69.31190	-1019.91107	-226.32182	40.36959	-1047.42419	-414.48639	32.24900	-972.14929	-278.24557	1674.99829																					 
100	0.990	-921.14130	-366.97156	1607.40027	-1052.73926	-371.67365	1617.83044	-931.34973	-236.77882	1574.31287	-1061.75378	-245.34972	1584.00586	-996.73840	-206.35313	1406.12695	-999.27618	-193.95567	1089.92688	-992.90649	-331.91281	1337.64270	-982.82446	-388.36401	1177.43201	-1089.37231	-167.66827	1224.00024	-839.15686	-275.74759	1375.17395	-765.47064	-287.40955	1180.89709	-758.72314	-321.49438	1064.02698	-778.30249	-409.57233	975.98065	-830.88245	-490.86032	902.62927	-781.58801	-474.76141	882.12286	-805.03918	-540.68701	836.98120	-1154.44543	-286.02420	1357.61731	-1229.42664	-283.85959	1135.93787	-1243.06689	-295.70349	1023.26129	-1246.58679	-306.72034	886.54565	-1211.03772	-329.51270	788.95630	-1257.87122	-301.52734	786.41760	-1246.95923	-318.69418	713.23450	-876.24609	-356.59943	931.58514	-1111.98950	-375.68008	941.05084	-937.75922	-199.24126	946.39948	-1085.44250	-211.86423	963.73492	-829.17377	-357.23206	626.70612	-846.77997	-409.42010	454.82739	-854.28528	-263.85767	324.02792	-899.01093	-114.91312	181.04756	-938.66931	-61.58320	182.76781	-921.25067	-197.14441	58.16359	-1154.68677	-354.72635	641.56561	-1107.55603	-386.85098	467.08307	-1112.87878	-331.58432	278.75357	-1066.94250	-277.75198	69.97583	-1019.60339	-226.45497	41.07864	-1047.33472	-414.60797	32.22758	-971.47845	-292.46381	1676.71326																					 
101	1.000	-920.61456	-380.58981	1608.76184	-1052.65259	-385.03641	1619.35083	-931.10046	-250.34964	1575.91907	-1061.20288	-259.30746	1585.65625	-996.59680	-219.89574	1407.74060	-999.64539	-207.36790	1091.59290	-992.48767	-345.34637	1339.18445	-983.07050	-401.77136	1178.91846	-1090.15210	-181.28674	1226.13306	-838.80872	-288.72702	1376.41785	-765.51062	-297.98898	1181.65320	-758.82043	-330.40460	1063.95996	-777.25659	-416.28009	972.95374	-828.41351	-495.87012	896.35461	-779.20605	-478.25497	876.83142	-801.67725	-542.27887	828.22974	-1154.04565	-299.78986	1359.77051	-1230.02905	-300.73715	1138.32129	-1243.80164	-314.62622	1025.94775	-1247.36353	-328.96146	889.63202	-1211.71460	-354.12671	792.82452	-1258.59229	-326.35388	789.54303	-1248.25842	-346.46808	717.34503	-877.29352	-371.16425	934.13953	-1112.98694	-388.29752	942.11011	-936.97522	-213.30348	948.56085	-1084.94653	-225.01671	965.20935	-829.33069	-376.94800	630.33173	-848.00244	-433.42847	459.79221	-855.18274	-293.90527	321.74063	-899.87286	-152.42879	170.92754	-939.75854	-98.54381	168.96854	-922.08807	-243.26738	54.94389	-1153.83423	-363.18661	641.92657	-1107.41602	-390.69254	466.64041	-1112.71704	-333.34424	278.97852	-1066.32434	-278.16663	70.23688	-1019.28937	-226.57652	41.87716	-1047.26331	-414.77637	32.17868	-973.58496	-305.90079	1679.38611																					 
